<?xml version="1.0" encoding="utf-8"?>
<!-- Generator: Adobe Illustrator 17.0.0, SVG Export Plug-In . SVG Version: 6.00 Build 0)  -->
<!DOCTYPE svg PUBLIC "-//W3C//DTD SVG 1.1//EN" "http://www.w3.org/Graphics/SVG/1.1/DTD/svg11.dtd">
<svg version="1.1" id="Livello_1" xmlns="http://www.w3.org/2000/svg" xmlns:xlink="http://www.w3.org/1999/xlink" x="0px" y="0px"
	 width="190px" height="190px" viewBox="0 0 190 190" enable-background="new 0 0 190 190" xml:space="preserve">
<g>
	<g>
		<g>
			<path fill="#FFFFFF" d="M111.269,66.417c0-1.505,0-2.684,0-3.068c0-6.294-4.31-16.926-17.544-16.926H93.08
				c-14.304,0-17.547,10.838-17.547,16.926c0,0.384,0,1.563,0,3.068c-1.411,0-2.558,1.148-2.558,2.56v6.36
				c0,1.413,1.147,2.557,2.558,2.557c0.038,0,0.071-0.011,0.111-0.011c1.045,9.18,11.672,19.521,17.435,19.521h0.645
				c5.955,0,16.413-10.341,17.442-19.521c0.035,0,0.069,0.011,0.102,0.011c1.412,0,2.563-1.145,2.563-2.557v-6.36
				C113.832,67.566,112.681,66.417,111.269,66.417z"/>
			<g>
				<path fill="#FFFFFF" d="M75.92,102.12c-10.863,0-19.676,8.81-19.676,19.675v20.155h37.61l-17.322-39.83H75.92z"/>
				<path fill="#FFFFFF" d="M111.783,102.12h-1.676l-16.253,39.83h37.603v-20.155C131.457,110.93,122.652,102.12,111.783,102.12z"/>
			</g>
			<g>
				<polygon fill="#FFFFFF" points="93.401,104.321 83.351,98.58 83.351,109.785 				"/>
				<polygon fill="#FFFFFF" points="93.401,104.321 103.452,98.58 103.452,109.785 				"/>
				<path fill="#FFFFFF" d="M96.588,104.321c0,1.758-1.427,3.183-3.187,3.183c-1.758,0-3.188-1.425-3.188-3.183
					c0-1.761,1.429-3.186,3.188-3.186C95.161,101.135,96.588,102.56,96.588,104.321z"/>
			</g>
		</g>
	</g>
	<g>
		<path fill="#FFFFFF" d="M93.85,184.293c-49.685,0-90.106-40.422-90.106-90.106S44.165,4.08,93.85,4.08
			s90.107,40.422,90.107,90.106S143.535,184.293,93.85,184.293z M93.85,10.08c-46.376,0-84.106,37.73-84.106,84.106
			s37.73,84.106,84.106,84.106c46.377,0,84.107-37.73,84.107-84.106S140.227,10.08,93.85,10.08z"/>
	</g>
</g>
</svg>
