<?xml version="1.0" encoding="utf-8"?>
<!-- Generator: Adobe Illustrator 17.0.0, SVG Export Plug-In . SVG Version: 6.00 Build 0)  -->
<!DOCTYPE svg PUBLIC "-//W3C//DTD SVG 1.1//EN" "http://www.w3.org/Graphics/SVG/1.1/DTD/svg11.dtd">
<svg version="1.1" id="Livello_1" xmlns="http://www.w3.org/2000/svg" xmlns:xlink="http://www.w3.org/1999/xlink" x="0px" y="0px"
	 width="190px" height="190px" viewBox="0 0 190 190" enable-background="new 0 0 190 190" xml:space="preserve">
<g>
	<g>
		<path fill="#A8DCEF" d="M94.307,184.334c-49.685,0-90.106-40.422-90.106-90.106S44.622,4.121,94.307,4.121
			s90.107,40.422,90.107,90.106S143.992,184.334,94.307,184.334z M94.307,10.121c-46.376,0-84.106,37.73-84.106,84.106
			s37.73,84.106,84.106,84.106c46.377,0,84.107-37.73,84.107-84.106S140.684,10.121,94.307,10.121z"/>
	</g>
	<g>
		<g>
			<path fill="#A8DCEF" stroke="#A8DCEF" stroke-width="2" stroke-miterlimit="10" d="M121.274,45.956H69.482
				c-2.043,0-3.696,1.654-3.696,3.697v31.936c0,2.039,1.654,3.693,3.696,3.693h17.934v7.599c0,0.222,0.027,0.443,0.062,0.658h-6.599
				c-1.195,0-2.154,0.965-2.154,2.15c0,1.193,0.959,2.154,2.154,2.154h28.993c1.195,0,2.154-0.961,2.154-2.154
				c0-1.185-0.959-2.15-2.154-2.15h-6.599c0.04-0.216,0.065-0.436,0.065-0.658v-7.599h17.937c2.043,0,3.696-1.655,3.696-3.693
				V49.653C124.97,47.611,123.317,45.956,121.274,45.956z M122.092,82.697H68.666V48.676h53.426V82.697z"/>
			<path fill="#A8DCEF" stroke="#A8DCEF" stroke-width="2" stroke-miterlimit="10" d="M69.548,124.629H48.645
				c-0.823,0-1.495,0.663-1.495,1.489v12.892c0,0.822,0.672,1.489,1.495,1.489h20.904c0.825,0,1.495-0.667,1.495-1.489v-12.892
				C71.043,125.292,70.374,124.629,69.548,124.629z M69.268,139.068H48.922v-12.953h20.346V139.068z"/>
			<path fill="#A8DCEF" stroke="#A8DCEF" stroke-width="2" stroke-miterlimit="10" d="M105.829,124.629H84.92
				c-0.823,0-1.487,0.663-1.487,1.489v12.892c0,0.822,0.664,1.489,1.487,1.489h20.909c0.823,0,1.49-0.667,1.49-1.489v-12.892
				C107.319,125.292,106.652,124.629,105.829,124.629z M105.546,139.068H85.2v-12.953h20.346V139.068z"/>
			<path fill="#A8DCEF" stroke="#A8DCEF" stroke-width="2" stroke-miterlimit="10" d="M142.979,124.629h-20.904
				c-0.826,0-1.495,0.663-1.495,1.489v12.892c0,0.822,0.669,1.489,1.495,1.489h20.904c0.821,0,1.495-0.667,1.495-1.489v-12.892
				C144.474,125.292,143.8,124.629,142.979,124.629z M142.699,139.068h-20.346v-12.953h20.346V139.068z"/>
			<path fill="#A8DCEF" stroke="#A8DCEF" stroke-width="2" stroke-miterlimit="10" d="M131.167,110.257
				c-0.188-0.101-0.402-0.161-0.635-0.161H96.97v-7.95c0-0.806-0.654-1.461-1.465-1.461c-0.808,0-1.462,0.656-1.462,1.461v7.95
				H59.063c-0.154,0-0.295,0.027-0.431,0.072c-0.583,0.153-0.997,0.583-0.997,1.095v7.334c0,0.639,0.657,1.16,1.46,1.16
				c0.806,0,1.465-0.521,1.465-1.16v-5.748h33.482v5.748c0,0.639,0.655,1.16,1.462,1.16c0.811,0,1.465-0.521,1.465-1.16v-5.748
				h32.016v5.748c0,0.639,0.655,1.16,1.465,1.16c0.803,0,1.463-0.521,1.463-1.16v-7.334
				C131.914,110.83,131.609,110.455,131.167,110.257z"/>
		</g>
	</g>
</g>
</svg>
