<?xml version="1.0" encoding="utf-8"?>
<!-- Generator: Adobe Illustrator 17.0.0, SVG Export Plug-In . SVG Version: 6.00 Build 0)  -->
<!DOCTYPE svg PUBLIC "-//W3C//DTD SVG 1.1//EN" "http://www.w3.org/Graphics/SVG/1.1/DTD/svg11.dtd">
<svg version="1.1" id="Livello_1" xmlns="http://www.w3.org/2000/svg" xmlns:xlink="http://www.w3.org/1999/xlink" x="0px" y="0px"
	 width="112px" height="99px" viewBox="0 0 112 99" enable-background="new 0 0 112 99" xml:space="preserve">
<path fill="#A8DCEF" d="M110.259,24.391c0.004-0.007,0.006-0.015,0.009-0.022c0.06-0.11,0.106-0.227,0.149-0.342
	c0.024-0.056,0.052-0.112,0.071-0.169c0.028-0.084,0.039-0.173,0.056-0.26c0.02-0.091,0.045-0.18,0.056-0.272
	c0.006-0.048,0-0.097,0.002-0.145c0.007-0.13,0.017-0.26,0.006-0.389c-0.006-0.063-0.026-0.125-0.035-0.188
	c-0.019-0.115-0.033-0.233-0.065-0.346c-0.015-0.054-0.041-0.104-0.06-0.156c-0.043-0.121-0.086-0.242-0.145-0.357
	c-0.004-0.007-0.006-0.015-0.009-0.022c-0.03-0.054-0.069-0.099-0.1-0.151c-0.06-0.097-0.117-0.195-0.192-0.287
	c-0.06-0.076-0.13-0.141-0.197-0.208c-0.058-0.06-0.114-0.123-0.179-0.179c-0.099-0.082-0.203-0.151-0.311-0.218
	c-0.043-0.028-0.078-0.061-0.123-0.086l-0.041-0.024c-0.006-0.002-0.009-0.004-0.013-0.007L76.009,1.949
	c-0.019-0.011-0.039-0.015-0.058-0.026c-0.078-0.041-0.162-0.074-0.246-0.108c-0.093-0.039-0.184-0.078-0.277-0.108
	c-0.052-0.015-0.11-0.022-0.164-0.035c-0.123-0.028-0.247-0.056-0.372-0.067c-0.041-0.004-0.084,0-0.123-0.002
	c-0.138-0.006-0.274-0.009-0.411,0.006c-0.048,0.004-0.1,0.019-0.149,0.028c-0.127,0.02-0.253,0.041-0.374,0.078
	c-0.06,0.019-0.115,0.045-0.175,0.069c-0.114,0.041-0.223,0.086-0.331,0.143c-0.017,0.007-0.033,0.011-0.048,0.02l-17.28,9.674
	L38.719,1.947c-0.017-0.009-0.033-0.013-0.05-0.022c-0.108-0.058-0.22-0.1-0.331-0.143c-0.058-0.022-0.114-0.048-0.171-0.067
	c-0.127-0.039-0.259-0.063-0.389-0.082c-0.045-0.006-0.089-0.019-0.134-0.024c-0.147-0.015-0.294-0.013-0.441-0.006
	c-0.03,0-0.06-0.002-0.089,0c-0.138,0.011-0.274,0.041-0.411,0.074c-0.041,0.009-0.084,0.015-0.123,0.026
	c-0.106,0.032-0.207,0.076-0.311,0.121c-0.073,0.03-0.145,0.058-0.216,0.095c-0.02,0.011-0.043,0.017-0.065,0.028L2.856,20.562
	c-0.002,0-0.004,0.002-0.004,0.002l-0.047,0.026c-0.05,0.028-0.089,0.065-0.136,0.095c-0.1,0.065-0.203,0.128-0.296,0.207
	c-0.069,0.06-0.127,0.125-0.19,0.19c-0.063,0.065-0.13,0.127-0.19,0.197c-0.074,0.093-0.132,0.194-0.194,0.292
	c-0.032,0.05-0.069,0.093-0.097,0.147c-0.004,0.007-0.006,0.015-0.009,0.022c-0.056,0.11-0.097,0.225-0.138,0.341
	c-0.022,0.06-0.05,0.115-0.069,0.177c-0.026,0.089-0.035,0.184-0.052,0.275c-0.015,0.086-0.039,0.171-0.047,0.259
	c-0.006,0.073,0.002,0.147,0.002,0.22c0,0.106-0.007,0.212,0.004,0.316c0.007,0.074,0.032,0.149,0.045,0.221
	c0.02,0.104,0.035,0.208,0.067,0.309c0.019,0.058,0.048,0.114,0.071,0.171c0.045,0.115,0.087,0.231,0.149,0.339
	c0.004,0.007,0.006,0.015,0.009,0.024c0.013,0.022,0.033,0.039,0.045,0.06c0.1,0.167,0.218,0.322,0.352,0.465
	c0.047,0.05,0.093,0.097,0.143,0.143c0.119,0.112,0.253,0.21,0.394,0.303c0.05,0.032,0.099,0.071,0.151,0.099
	c0.015,0.009,0.028,0.02,0.043,0.03l14.878,7.861L4.817,39.593c-0.052,0.026-0.097,0.061-0.147,0.089
	c-0.087,0.048-0.173,0.099-0.255,0.156c-0.076,0.054-0.145,0.114-0.214,0.175c-0.067,0.058-0.132,0.115-0.194,0.18
	c-0.071,0.076-0.134,0.156-0.195,0.238c-0.035,0.045-0.074,0.082-0.106,0.128c-0.015,0.022-0.022,0.047-0.037,0.069
	c-0.054,0.086-0.097,0.175-0.141,0.266C3.49,40.973,3.45,41.05,3.42,41.128c-0.032,0.082-0.05,0.167-0.074,0.253
	c-0.024,0.089-0.05,0.179-0.065,0.27c-0.015,0.086-0.017,0.173-0.022,0.259C3.252,42,3.243,42.092,3.245,42.183
	c0.002,0.087,0.017,0.175,0.028,0.262c0.011,0.091,0.02,0.184,0.041,0.275c0.019,0.078,0.045,0.156,0.071,0.234
	c0.032,0.1,0.065,0.197,0.108,0.292c0.009,0.024,0.015,0.048,0.026,0.071c0.015,0.03,0.039,0.05,0.054,0.08
	c0.093,0.179,0.207,0.348,0.341,0.504c0.032,0.037,0.058,0.078,0.091,0.114c0.143,0.153,0.301,0.294,0.482,0.415L21.21,55.543
	c-0.045,0.197-0.074,0.404-0.074,0.616v16.501c0,0.002,0,0.002,0,0.004v0.017c0,0.047,0.011,0.091,0.013,0.136
	c0.006,0.134,0.015,0.27,0.041,0.4c0.017,0.087,0.047,0.169,0.073,0.253c0.026,0.089,0.047,0.18,0.082,0.268
	c0.033,0.084,0.08,0.158,0.121,0.238c0.043,0.082,0.08,0.164,0.132,0.242c0.048,0.074,0.112,0.141,0.167,0.21
	c0.058,0.071,0.11,0.145,0.173,0.21c0.089,0.091,0.192,0.169,0.294,0.247c0.041,0.033,0.074,0.071,0.117,0.1l0.015,0.011l0,0
	l32.054,21.919c0.002,0.002,0.004,0.002,0.006,0.004c0.058,0.039,0.123,0.067,0.186,0.102c0.061,0.037,0.121,0.071,0.184,0.102
	c0.099,0.047,0.199,0.086,0.305,0.119c0.052,0.019,0.102,0.037,0.154,0.05c0.041,0.011,0.08,0.026,0.121,0.035
	c0.197,0.045,0.4,0.073,0.61,0.073c0.002,0,0.004,0.002,0.006,0.002l0,0h0.002c0,0,0,0,0.002,0l0,0c0.002,0,0.004-0.002,0.006-0.002
	c0.21,0,0.413-0.028,0.61-0.073c0.041-0.009,0.08-0.024,0.121-0.035c0.052-0.015,0.102-0.033,0.154-0.05
	c0.104-0.037,0.207-0.074,0.305-0.119c0.063-0.032,0.123-0.065,0.184-0.1c0.061-0.037,0.127-0.063,0.186-0.104
	c0.002-0.002,0.006-0.002,0.007-0.004l32.065-21.93c0.048-0.034,0.086-0.074,0.13-0.112c0.097-0.074,0.194-0.149,0.279-0.236
	c0.065-0.065,0.117-0.14,0.177-0.212c0.054-0.069,0.115-0.134,0.166-0.208c0.05-0.076,0.089-0.16,0.13-0.242
	c0.041-0.078,0.089-0.154,0.121-0.238c0.037-0.087,0.056-0.177,0.084-0.268c0.026-0.084,0.056-0.166,0.073-0.253
	c0.028-0.134,0.035-0.272,0.041-0.408c0.002-0.043,0.013-0.086,0.013-0.128v-0.013c0-0.002,0-0.006,0-0.007V56.16
	c0-0.212-0.03-0.417-0.073-0.616l16.724-11.112c0.182-0.121,0.341-0.262,0.484-0.415c0.033-0.035,0.058-0.074,0.089-0.11
	c0.134-0.158,0.249-0.327,0.344-0.508c0.015-0.028,0.039-0.048,0.052-0.078c0.011-0.022,0.015-0.047,0.026-0.069
	c0.043-0.099,0.076-0.197,0.11-0.3c0.024-0.076,0.05-0.153,0.069-0.229c0.022-0.093,0.032-0.186,0.041-0.281
	c0.011-0.086,0.026-0.171,0.028-0.257c0.002-0.091-0.007-0.184-0.013-0.275c-0.007-0.087-0.009-0.173-0.024-0.26
	c-0.015-0.087-0.039-0.173-0.063-0.26c-0.024-0.089-0.045-0.179-0.078-0.264c-0.03-0.076-0.065-0.147-0.102-0.221
	c-0.045-0.095-0.091-0.19-0.147-0.279c-0.015-0.02-0.02-0.043-0.035-0.065c-0.03-0.045-0.069-0.08-0.1-0.121
	c-0.063-0.086-0.128-0.169-0.203-0.247c-0.06-0.065-0.125-0.121-0.192-0.179c-0.069-0.061-0.138-0.121-0.214-0.175
	c-0.082-0.06-0.169-0.11-0.259-0.158c-0.048-0.028-0.093-0.063-0.143-0.087l-12.924-6.241l14.878-7.861
	c0.017-0.009,0.03-0.02,0.045-0.03c0.048-0.028,0.091-0.063,0.14-0.093c0.147-0.093,0.281-0.195,0.406-0.311
	c0.047-0.043,0.093-0.087,0.136-0.136c0.138-0.147,0.259-0.305,0.359-0.474C110.231,24.426,110.248,24.413,110.259,24.391z
	 M74.629,59.579l-13.172-8.596l26.681-14.383l12.206,5.893L74.629,59.579z M37.368,59.579L11.657,42.492l12.204-5.893l26.681,14.383
	L37.368,59.579z M37.357,7.583l13.01,7.285l-26.5,15.408l-13.864-7.326L37.357,7.583z M55.999,47.583L29.643,33.374L55.999,18.05
	l26.355,15.325L55.999,47.583z M61.63,14.866l13.01-7.285l27.354,15.366L88.13,30.273L61.63,14.866z M35.811,65.244
	c0.033,0.022,0.071,0.03,0.104,0.048c0.154,0.093,0.316,0.166,0.484,0.227c0.074,0.028,0.147,0.063,0.223,0.086
	c0.229,0.061,0.465,0.099,0.701,0.102c0.009,0,0.019,0.004,0.03,0.004h0.002h0.002c0.009,0,0.02-0.004,0.03-0.004
	c0.234-0.004,0.467-0.039,0.694-0.1c0.076-0.02,0.145-0.056,0.22-0.084c0.166-0.06,0.326-0.128,0.48-0.22
	c0.033-0.02,0.069-0.026,0.1-0.047l14.329-9.35v33.416L26.725,71.212V59.208L35.811,65.244z M85.276,71.21L58.792,89.322V55.906
	l14.327,9.35c0.032,0.02,0.065,0.026,0.097,0.045c0.156,0.093,0.32,0.166,0.491,0.225c0.071,0.026,0.138,0.06,0.208,0.08
	c0.231,0.061,0.467,0.099,0.707,0.1c0.007,0,0.013,0.004,0.02,0.004h0.002h0.002c0.007,0,0.013-0.004,0.02-0.004
	c0.242-0.002,0.48-0.039,0.715-0.102c0.074-0.022,0.145-0.058,0.218-0.086c0.169-0.061,0.333-0.134,0.488-0.227
	c0.035-0.022,0.071-0.028,0.104-0.048l9.088-6.038V71.21H85.276z"/>
</svg>
