<?xml version="1.0" encoding="utf-8"?>
<!-- Generator: Adobe Illustrator 17.0.0, SVG Export Plug-In . SVG Version: 6.00 Build 0)  -->
<!DOCTYPE svg PUBLIC "-//W3C//DTD SVG 1.1//EN" "http://www.w3.org/Graphics/SVG/1.1/DTD/svg11.dtd">
<svg version="1.1" id="Livello_1" xmlns="http://www.w3.org/2000/svg" xmlns:xlink="http://www.w3.org/1999/xlink" x="0px" y="0px"
	 width="190px" height="190px" viewBox="0 0 190 190" enable-background="new 0 0 190 190" xml:space="preserve">
<g>
	<g>
		<polygon fill="#A8DCEF" points="77.4,119.413 52.986,95 77.4,70.587 81.398,74.586 60.984,95 81.398,115.415 		"/>
		<polygon fill="#A8DCEF" points="112.599,119.413 108.601,115.415 129.015,95 108.601,74.586 112.599,70.587 137.013,95 		"/>
		
			<rect x="92.173" y="57.855" transform="matrix(0.9659 0.2588 -0.2588 0.9659 27.8247 -21.3506)" fill="#A8DCEF" width="5.654" height="74.29"/>
	</g>
	<path fill="#A8DCEF" d="M95,185.106c-49.685,0-90.106-40.422-90.106-90.106S45.315,4.894,95,4.894S185.107,45.315,185.107,95
		S144.685,185.106,95,185.106z M95,10.894c-46.376,0-84.106,37.73-84.106,84.106S48.623,179.106,95,179.106
		c46.377,0,84.107-37.73,84.107-84.106S141.377,10.894,95,10.894z"/>
</g>
</svg>
