<?xml version="1.0" encoding="utf-8"?>
<!-- Generator: Adobe Illustrator 17.0.0, SVG Export Plug-In . SVG Version: 6.00 Build 0)  -->
<!DOCTYPE svg PUBLIC "-//W3C//DTD SVG 1.1//EN" "http://www.w3.org/Graphics/SVG/1.1/DTD/svg11.dtd">
<svg version="1.1" id="Livello_1" xmlns="http://www.w3.org/2000/svg" xmlns:xlink="http://www.w3.org/1999/xlink" x="0px" y="0px"
	 width="74px" height="98.664px" viewBox="0 0 74 98.664" enable-background="new 0 0 74 98.664" xml:space="preserve">
<g>
	<path fill="#2A9CD0" d="M64,41.664h-6V26.266c0-10.333-8.145-18.739-18.546-18.739C29.103,7.527,21,15.933,21,26.266v15.398h-9
		V26.266C12,11.783,23.453,0,37.954,0C52.506,0,64,11.783,64,26.266V41.664z"/>
	<path fill="#A8DCEF" d="M74,49.296c0-8.081-6.551-14.631-14.631-14.631H14.631C6.551,34.664,0,41.215,0,49.296v34.738
		c0,8.081,6.551,14.631,14.631,14.631h44.738C67.449,98.664,74,92.114,74,84.033V49.296z M43,75.492c0,3.367-3.133,6.096-6.5,6.096
		S30,78.859,30,75.492V55.984c0-3.367,3.133-6.096,6.5-6.096s6.5,2.729,6.5,6.096V75.492z"/>
</g>
</svg>
