<?xml version="1.0" encoding="utf-8"?>
<!-- Generator: Adobe Illustrator 17.0.0, SVG Export Plug-In . SVG Version: 6.00 Build 0)  -->
<!DOCTYPE svg PUBLIC "-//W3C//DTD SVG 1.1//EN" "http://www.w3.org/Graphics/SVG/1.1/DTD/svg11.dtd">
<svg version="1.1" id="Livello_1" xmlns="http://www.w3.org/2000/svg" xmlns:xlink="http://www.w3.org/1999/xlink" x="0px" y="0px"
	 width="190px" height="190px" viewBox="0 0 190 190" enable-background="new 0 0 190 190" xml:space="preserve">
<g>
	<g>
		<g>
			<path fill="#A8DCEF" d="M67.933,100.71l-3.793,13.669H51.656l16.277-53.253h15.802l16.513,53.253H87.29l-4.109-13.669H67.933z
				 M81.443,91.703l-3.318-11.298c-0.948-3.161-1.896-7.112-2.686-10.271h-0.158c-0.791,3.16-1.58,7.189-2.449,10.271l-3.161,11.298
				H81.443z"/>
			<path fill="#A8DCEF" d="M129.091,114.379l-0.553-4.819h-0.236c-2.134,3.002-6.242,5.688-11.694,5.688
				c-7.743,0-11.694-5.452-11.694-10.982c0-9.244,8.217-14.301,22.992-14.222v-0.79c0-3.161-0.869-8.849-8.691-8.849
				c-3.556,0-7.269,1.106-9.955,2.844l-1.58-4.582c3.161-2.055,7.743-3.398,12.563-3.398c11.694,0,14.538,7.98,14.538,15.644v14.302
				c0,3.318,0.158,6.558,0.632,9.165H129.091z M128.064,94.864c-7.585-0.158-16.197,1.185-16.197,8.613
				c0,4.503,3.003,6.636,6.558,6.636c4.978,0,8.139-3.16,9.244-6.4c0.237-0.711,0.395-1.501,0.395-2.212V94.864z"/>
		</g>
		<rect x="49.893" y="121.84" fill="#A8DCEF" width="88" height="4"/>
	</g>
	<g>
		<path fill="#A8DCEF" d="M93.653,184.334c-49.685,0-90.106-40.422-90.106-90.106S43.968,4.121,93.653,4.121
			s90.107,40.422,90.107,90.106S143.339,184.334,93.653,184.334z M93.653,10.121c-46.376,0-84.106,37.73-84.106,84.106
			s37.73,84.106,84.106,84.106c46.377,0,84.107-37.73,84.107-84.106S140.03,10.121,93.653,10.121z"/>
	</g>
</g>
</svg>
