<?xml version="1.0" encoding="utf-8"?>
<!-- Generator: Adobe Illustrator 17.0.0, SVG Export Plug-In . SVG Version: 6.00 Build 0)  -->
<!DOCTYPE svg PUBLIC "-//W3C//DTD SVG 1.1//EN" "http://www.w3.org/Graphics/SVG/1.1/DTD/svg11.dtd">
<svg version="1.1" id="Livello_1" xmlns="http://www.w3.org/2000/svg" xmlns:xlink="http://www.w3.org/1999/xlink" x="0px" y="0px"
	 width="378.11px" height="386.057px" viewBox="0 0 378.11 386.057" enable-background="new 0 0 378.11 386.057"
	 xml:space="preserve">
<g>
	<g>
		<g>
			<path fill="none" stroke="#00BEF3" stroke-width="4" stroke-linecap="round" stroke-miterlimit="10" d="M2,108.387
				c1.312-1.501,2.652-2.985,4.02-4.453"/>
			
				<path fill="none" stroke="#00BEF3" stroke-width="4" stroke-linecap="round" stroke-miterlimit="10" stroke-dasharray="12.1547,12.1547" d="
				M14.584,95.311c42.47-40.187,107.09-65.844,179.463-65.844c68.895,0,130.763,23.25,173.188,60.151"/>
			<path fill="none" stroke="#00BEF3" stroke-width="4" stroke-linecap="round" stroke-miterlimit="10" d="M371.765,93.68
				c1.474,1.362,2.923,2.741,4.345,4.137"/>
		</g>
	</g>
	<g>
		<g>
			<path fill="#E9EBEA" d="M297.211,289.646c0,8.289-6.719,15.008-15.007,15.008H92.368c-8.289,0-15.008-6.719-15.008-15.008V15.005
				C77.36,6.716,84.079,0,92.368,0h189.836c8.288,0,15.007,6.716,15.007,15.005V289.646z"/>
			<path fill="#332F30" d="M92.368,303.68c-7.737,0-14.031-6.296-14.031-14.034V15.005c0-7.737,6.294-14.031,14.031-14.031h189.836
				c7.74,0,14.034,6.294,14.034,14.031v274.641c0,7.737-6.294,14.034-14.034,14.034H92.368z"/>
			<rect x="98.553" y="29.041" fill="#A8DCEF" width="177.467" height="246.571"/>
			<path opacity="0.1" fill="#FFFFFF" d="M282.204,0.973H92.368c-7.737,0-14.031,6.294-14.031,14.031v215.968L285.309,1.332
				C284.309,1.105,283.272,0.973,282.204,0.973z"/>
			<g>
				<polygon fill="#332F30" points="197.707,294.729 176.88,294.682 176.867,284.871 197.694,284.919 				"/>
				<path fill="#585657" d="M177.722,294.009l-0.008-8.075l19.138,0.045l0.008,8.075L177.722,294.009z M178.275,286.644l0.011,6.919
					l17.981-0.09l-0.008-6.919L178.275,286.644z"/>
				<polygon opacity="0.1" fill="#FFFFFF" points="197.694,284.961 176.867,284.913 176.87,285.069 197.704,294.687 				"/>
			</g>
			<path opacity="0.6" fill-rule="evenodd" clip-rule="evenodd" fill="#FFFFFF" d="M227.138,207.658L227.138,207.658z
				 M154.574,67.501L154.574,67.501z M138.045,121.387l46.361,3.897l22.979-41.657l-4.434,47.301l40.717,22.844l-46.495-3.897
				l-22.844,41.657l4.3-47.301L138.045,121.387z"/>
			<path opacity="0.6" fill-rule="evenodd" clip-rule="evenodd" fill="#FFFFFF" d="M125.951,113.996
				c-4.166,13.169,20.56,31.982,56.977,43.539c36.551,11.691,67.593,10.482,71.758-2.553c2.419-7.525-4.838-17.066-18.276-25.935
				c24.323,13.707,37.895,29.429,33.998,41.926c-5.778,18.007-46.092,20.426-93.259,5.375
				c-47.167-14.916-78.746-40.179-72.968-58.32c3.897-12.228,23.785-17.335,50.93-14.513
				C139.389,102.977,128.37,106.605,125.951,113.996z"/>
			<path opacity="0.6" fill-rule="evenodd" clip-rule="evenodd" fill="#FFFFFF" d="M168.818,199.864
				c13.169,4.166,31.982-20.56,43.539-57.111c11.691-36.417,10.482-67.593-2.553-71.624c-7.525-2.419-17.066,4.703-25.935,18.276
				c13.572-24.323,29.429-37.895,41.926-33.998c18.007,5.778,20.426,46.092,5.375,93.259c-14.916,47.167-40.179,78.746-58.32,72.968
				c-12.228-3.897-17.335-23.785-14.513-50.93C157.799,186.426,161.427,197.445,168.818,199.864z"/>
		</g>
	</g>
	<g>
		<g>
			<path fill="#BABBBD" d="M304.135,271.681c-0.298-0.551-11.081,5.114-10.716,5.787l16.288,33.259
				c4.309-2.857,8.641-5.683,13.002-8.459L304.135,271.681z"/>
			<g>
				<path fill="#332F30" d="M291.852,153.825v82.069c0,11.785-4.224,20.71-18.527,20.71c-14.303,0-52.519,0-52.519,0
					c6.636,6.064,17.85,14.875,36.926,17.275s34.12-5.719,34.12-5.719s18.128-7.868,28.31-26.794v-60.835
					C320.163,180.531,311.483,162.872,291.852,153.825z"/>
				<path fill="#99D1E0" d="M291.854,235.894v-82.069c-10.373-4.884-19.474-6.044-26.443-6.128
					c-34.946-0.421-63.616,27.57-64.038,62.518c-0.219,18.207,7.286,34.697,19.457,46.389c0.476,0,38.285,0,52.497,0
					C287.63,256.604,291.854,247.679,291.854,235.894z"/>
				<path fill="#E9EBEA" d="M320.163,180.531v60.835c0,0,2.094-3.701,3.25-6.867V187.45
					C322.923,186.043,320.814,181.597,320.163,180.531z"/>
			</g>
			<path fill="#EDEDEE" d="M265.52,138.535c-39.945-0.48-72.83,31.625-73.309,71.568c-0.48,39.942,31.623,72.827,71.565,73.308
				c39.945,0.48,72.827-31.624,73.311-71.567C337.567,171.902,305.463,139.015,265.52,138.535z M263.886,274.25
				c-34.945-0.421-62.935-29.089-62.514-64.035c0.421-34.948,29.091-62.939,64.038-62.518c34.947,0.419,62.934,29.09,62.515,64.039
				C327.506,246.68,298.833,274.67,263.886,274.25z"/>
			<g>
				<g>
					<g>
						<path fill="#DDDDDE" d="M265.411,143.598c-34.947-0.421-63.617,27.57-64.038,62.518c-0.012,1.014,0.005,2.022,0.04,3.026
							c0.991-34.444,29.411-61.862,63.998-61.445c33.933,0.407,61.3,27.452,62.475,61.016c0.01-0.359,0.036-0.715,0.04-1.076
							C328.345,172.688,300.357,144.017,265.411,143.598z"/>
					</g>
					<g>
						<path fill="#DDDDDE" d="M263.778,279.313c-38.93-0.469-70.399-31.724-71.525-70.289c-0.01,0.361-0.036,0.717-0.04,1.079
							c-0.48,39.942,31.623,72.827,71.565,73.308c39.945,0.48,72.827-31.624,73.311-71.567c0.012-1.013-0.011-2.018-0.04-3.022
							C335.99,248.262,303.361,279.789,263.778,279.313z"/>
					</g>
				</g>
			</g>
			<path fill="#EDEDEE" d="M223.809,194.971c-0.464,0-0.934-0.07-1.4-0.216c-2.459-0.772-3.825-3.392-3.053-5.851
				c6.67-21.219,24.871-27.336,33.566-27.605c2.543-0.079,4.729,1.945,4.809,4.52c0.079,2.568-1.934,4.717-4.499,4.808
				c-0.823,0.035-18.678,1.049-24.971,21.076C227.632,193.695,225.792,194.971,223.809,194.971z"/>
			<path fill="#2A9CD0" d="M365.027,361.506c4.375,8.07,1.379,18.161-6.693,22.539l0,0c-8.072,4.376-18.16,1.379-22.535-6.691
				l-26.626-57.07c-4.375-8.07-1.227-11.075,6.843-15.45l0,0c8.071-4.377,10.982-5.395,15.359,2.677L365.027,361.506z"/>
			<g>
				<defs>
					<circle id="SVGID_1_" cx="264.649" cy="210.973" r="63.281"/>
				</defs>
				<clipPath id="SVGID_2_">
					<use xlink:href="#SVGID_1_"  overflow="visible"/>
				</clipPath>
				<path opacity="0.6" clip-path="url(#SVGID_2_)" fill-rule="evenodd" clip-rule="evenodd" fill="#FFFFFF" d="M265.816,242.652
					L265.816,242.652z M144.729,8.775L144.729,8.775z M117.148,98.693l77.361,6.503l38.344-69.513l-7.4,78.931l67.943,38.12
					l-77.585-6.503l-38.12,69.513l7.176-78.931L117.148,98.693z"/>
				<path opacity="0.6" clip-path="url(#SVGID_2_)" fill-rule="evenodd" clip-rule="evenodd" fill="#FFFFFF" d="M96.967,86.36
					c-6.951,21.975,34.308,53.368,95.076,72.652c60.992,19.508,112.79,17.49,119.741-4.26c4.036-12.557-8.072-28.478-30.496-43.277
					c40.587,22.872,63.234,49.107,56.731,69.961c-9.642,30.047-76.913,34.084-155.619,8.969
					c-78.706-24.89-131.402-67.046-121.76-97.318c6.503-20.405,39.69-28.926,84.985-24.217
					C119.391,67.973,101.003,74.028,96.967,86.36z"/>
				<path opacity="0.6" clip-path="url(#SVGID_2_)" fill-rule="evenodd" clip-rule="evenodd" fill="#FFFFFF" d="M168.498,229.647
					c21.975,6.951,53.368-34.308,72.652-95.3c19.508-60.768,17.49-112.79-4.26-119.517c-12.557-4.036-28.478,7.848-43.277,30.496
					c22.648-40.587,49.107-63.234,69.961-56.731c30.047,9.642,34.084,76.913,8.969,155.619
					c-24.89,78.706-67.046,131.402-97.318,121.76c-20.405-6.503-28.926-39.69-24.217-84.985
					C150.111,207.223,156.165,225.61,168.498,229.647z"/>
			</g>
			<circle opacity="0.2" fill="#00BEF3" cx="264.649" cy="210.973" r="63.281"/>
		</g>
	</g>
</g>
</svg>
