<?xml version="1.0" encoding="utf-8"?>
<!-- Generator: Adobe Illustrator 17.0.0, SVG Export Plug-In . SVG Version: 6.00 Build 0)  -->
<!DOCTYPE svg PUBLIC "-//W3C//DTD SVG 1.1//EN" "http://www.w3.org/Graphics/SVG/1.1/DTD/svg11.dtd">
<svg version="1.1" id="Livello_1" xmlns="http://www.w3.org/2000/svg" xmlns:xlink="http://www.w3.org/1999/xlink" x="0px" y="0px"
	 width="190px" height="55px" viewBox="0 0 190 55" enable-background="new 0 0 190 55" xml:space="preserve">
<g>
	<path fill="#FFFFFF" d="M64.103,14.683v10.401h-4.064V5.619h0.481l11.978,11.096V6.261h4.064v19.465h-0.481L64.103,14.683z
		 M92.578,19.228c0,0.945-0.16,1.809-0.481,2.594c-0.321,0.785-0.767,1.457-1.337,2.019c-0.571,0.561-1.252,1.003-2.045,1.324
		c-0.793,0.321-1.662,0.481-2.607,0.481c-0.945,0-1.814-0.16-2.607-0.481c-0.793-0.321-1.475-0.762-2.045-1.324
		c-0.571-0.561-1.016-1.234-1.337-2.019c-0.321-0.784-0.481-1.649-0.481-2.594c0-0.927,0.16-1.787,0.481-2.58
		c0.321-0.793,0.766-1.471,1.337-2.032c0.57-0.561,1.252-1.003,2.045-1.324c0.793-0.321,1.662-0.481,2.607-0.481
		c0.945,0,1.814,0.16,2.607,0.481c0.793,0.321,1.475,0.762,2.045,1.324c0.57,0.561,1.016,1.239,1.337,2.032
		C92.418,17.442,92.578,18.302,92.578,19.228z M88.674,19.228c0-1.07-0.227-1.907-0.682-2.513c-0.455-0.606-1.083-0.909-1.885-0.909
		c-0.802,0-1.43,0.307-1.885,0.922c-0.455,0.615-0.682,1.475-0.682,2.58c0,1.016,0.227,1.827,0.682,2.433
		c0.455,0.606,1.083,0.909,1.885,0.909c0.802,0,1.43-0.303,1.885-0.909C88.447,21.136,88.674,20.298,88.674,19.228z M93.326,13.373
		h4.331l2.326,5.134l2.433-5.134h3.636l-6.31,12.353h-0.428L93.326,13.373z M115.599,24.469c-0.909,0.784-1.952,1.176-3.128,1.176
		c-0.785,0-1.511-0.16-2.179-0.481c-0.668-0.321-1.252-0.757-1.751-1.31c-0.499-0.552-0.887-1.207-1.163-1.965
		c-0.277-0.757-0.414-1.582-0.414-2.473c0-0.927,0.156-1.796,0.468-2.607c0.312-0.811,0.735-1.511,1.27-2.099
		c0.535-0.588,1.167-1.052,1.898-1.39c0.731-0.338,1.524-0.508,2.38-0.508c0.552,0,1.074,0.067,1.564,0.201
		c0.49,0.134,1.047,0.352,1.671,0.655l3.262-0.294v8.048c0,0.374,0.004,0.704,0.013,0.989c0.009,0.285,0.022,0.548,0.04,0.789
		c0.018,0.241,0.04,0.468,0.067,0.682c0.027,0.214,0.067,0.446,0.12,0.695l-3.77,1.069L115.599,24.469z M115.412,16.261
		c-0.606-0.303-1.203-0.455-1.791-0.455c-0.838,0-1.506,0.321-2.005,0.963c-0.499,0.642-0.749,1.497-0.749,2.567
		c0,1.052,0.214,1.867,0.642,2.446c0.428,0.579,1.043,0.869,1.845,0.869c0.374,0,0.717-0.058,1.029-0.174
		c0.312-0.116,0.655-0.307,1.029-0.575V16.261z"/>
	<path fill="#FFFFFF" d="M127.611,16.234l-1.631,8.85h-4.011l3.93-19.465h0.267l7.192,12.433l6.738-12.433h0.374l3.93,19.465h-4.198
		l-1.711-8.663l-5.134,9.305h-0.267L127.611,16.234z M151.006,8.908c0,0.624-0.214,1.15-0.642,1.578
		c-0.428,0.428-0.954,0.642-1.578,0.642c-0.624,0-1.15-0.214-1.577-0.642c-0.428-0.428-0.642-0.953-0.642-1.578
		c0-0.624,0.214-1.15,0.642-1.578c0.428-0.428,0.953-0.642,1.577-0.642c0.624,0,1.15,0.214,1.578,0.642
		C150.792,7.758,151.006,8.284,151.006,8.908z M146.755,13.801l4.064-0.749v12.032h-4.064V13.801z M154.268,13.373h3.877v1.738
		c0.642-0.713,1.27-1.234,1.885-1.564c0.615-0.33,1.261-0.495,1.938-0.495c1.176,0,2.112,0.388,2.807,1.163
		c0.695,0.775,1.043,1.805,1.043,3.088v7.781h-4.064v-6.257c0-0.642-0.152-1.15-0.455-1.524c-0.303-0.374-0.722-0.561-1.257-0.561
		s-0.954,0.187-1.257,0.561c-0.303,0.374-0.455,0.882-0.455,1.524v6.257h-4.064V13.373z M177.262,24.523
		c-0.642,0.392-1.235,0.677-1.778,0.856c-0.544,0.178-1.101,0.267-1.671,0.267c-0.767,0-1.48-0.156-2.139-0.468
		c-0.66-0.312-1.235-0.749-1.725-1.31c-0.49-0.561-0.874-1.217-1.15-1.965c-0.277-0.749-0.414-1.568-0.414-2.46
		c0-0.945,0.151-1.822,0.455-2.634c0.303-0.811,0.722-1.511,1.257-2.099c0.535-0.588,1.167-1.052,1.898-1.39
		c0.731-0.338,1.524-0.508,2.38-0.508c0.428,0,0.815,0.031,1.163,0.094c0.348,0.063,0.78,0.192,1.297,0.388V6.689l4.064-0.749v19.01
		l-3.636,0.695V24.523z M176.835,16.047c-0.517-0.16-0.98-0.241-1.39-0.241c-0.464,0-0.887,0.089-1.27,0.267
		c-0.384,0.178-0.718,0.419-1.003,0.722c-0.285,0.303-0.504,0.673-0.655,1.11c-0.152,0.437-0.227,0.905-0.227,1.404
		c0,0.945,0.236,1.702,0.709,2.273c0.472,0.571,1.092,0.856,1.858,0.856c0.677,0,1.337-0.151,1.979-0.455V16.047z"/>
	<path fill="#FFFFFF" d="M73.158,44.699c-0.782,0.449-1.546,0.771-2.292,0.967c-0.746,0.196-1.575,0.293-2.487,0.293
		c-0.608,0-1.184-0.043-1.727-0.13c-0.543-0.087-1.039-0.225-1.488-0.413c-0.724-0.29-1.379-0.688-1.966-1.195
		c-0.587-0.507-1.086-1.097-1.499-1.771c-0.413-0.673-0.735-1.405-0.967-2.194c-0.232-0.789-0.348-1.611-0.348-2.466
		c0-1.173,0.199-2.256,0.597-3.248c0.398-0.992,0.945-1.854,1.64-2.585c0.695-0.731,1.521-1.303,2.477-1.716
		c0.956-0.413,1.991-0.619,3.107-0.619c0.724,0,1.448,0.087,2.172,0.261c0.246,0.073,0.47,0.138,0.673,0.196
		c0.203,0.058,0.405,0.13,0.608,0.217c0.203,0.087,0.42,0.185,0.652,0.293c0.231,0.109,0.5,0.25,0.804,0.424l-0.304,3.91
		c-0.16-0.159-0.297-0.293-0.413-0.402c-0.116-0.109-0.232-0.214-0.348-0.315c-0.493-0.42-1.057-0.753-1.694-0.999
		c-0.637-0.246-1.275-0.369-1.912-0.369c-0.652,0-1.242,0.116-1.771,0.348c-0.529,0.232-0.981,0.558-1.358,0.978
		c-0.377,0.42-0.67,0.923-0.88,1.51c-0.21,0.587-0.315,1.235-0.315,1.944c0,0.739,0.109,1.409,0.326,2.009
		c0.217,0.601,0.525,1.115,0.923,1.542c0.398,0.427,0.88,0.753,1.445,0.978c0.565,0.225,1.202,0.337,1.912,0.337
		c0.55,0,1.09-0.058,1.618-0.174c0.529-0.116,1.017-0.275,1.466-0.478c0.318-0.145,0.587-0.29,0.804-0.434
		c0.217-0.145,0.5-0.376,0.847-0.695L73.158,44.699z M86.127,40.68c0,0.768-0.13,1.47-0.391,2.107
		c-0.261,0.637-0.623,1.184-1.086,1.64c-0.464,0.456-1.018,0.815-1.662,1.075c-0.645,0.261-1.351,0.391-2.118,0.391
		c-0.768,0-1.474-0.13-2.118-0.391c-0.645-0.261-1.199-0.619-1.662-1.075c-0.464-0.456-0.826-1.003-1.086-1.64
		c-0.261-0.637-0.391-1.339-0.391-2.107c0-0.753,0.13-1.452,0.391-2.096c0.261-0.644,0.623-1.195,1.086-1.651
		c0.463-0.456,1.017-0.815,1.662-1.075c0.644-0.261,1.35-0.391,2.118-0.391c0.767,0,1.474,0.13,2.118,0.391
		c0.644,0.261,1.198,0.619,1.662,1.075c0.463,0.456,0.826,1.007,1.086,1.651C85.997,39.229,86.127,39.927,86.127,40.68z
		 M82.956,40.68c0-0.869-0.185-1.55-0.554-2.042c-0.369-0.492-0.88-0.739-1.532-0.739c-0.652,0-1.162,0.25-1.532,0.749
		c-0.369,0.5-0.554,1.199-0.554,2.096c0,0.826,0.185,1.485,0.554,1.977c0.369,0.493,0.88,0.739,1.532,0.739
		c0.652,0,1.162-0.246,1.532-0.739C82.771,42.23,82.956,41.549,82.956,40.68z M88.321,35.923h3.15v1.412
		c0.521-0.579,1.032-1.003,1.532-1.271c0.5-0.268,1.024-0.402,1.575-0.402c0.956,0,1.716,0.315,2.281,0.945
		c0.565,0.63,0.847,1.466,0.847,2.509v6.322h-3.302v-5.083c0-0.521-0.123-0.934-0.369-1.238c-0.246-0.304-0.587-0.456-1.021-0.456
		c-0.434,0-0.775,0.152-1.021,0.456c-0.246,0.304-0.369,0.717-0.369,1.238v5.083h-3.302V35.923z M100.074,42.44
		c0.188,0.16,0.355,0.293,0.5,0.402c0.145,0.109,0.282,0.206,0.413,0.293c0.13,0.087,0.264,0.163,0.402,0.228
		c0.137,0.065,0.293,0.134,0.467,0.206c0.536,0.217,1.064,0.326,1.586,0.326c0.42,0,0.746-0.087,0.978-0.261
		c0.231-0.174,0.348-0.42,0.348-0.739c0-0.29-0.101-0.492-0.304-0.608c-0.058-0.029-0.112-0.054-0.163-0.076
		c-0.051-0.022-0.119-0.051-0.206-0.087c-0.087-0.036-0.206-0.079-0.358-0.13c-0.152-0.051-0.344-0.112-0.576-0.185
		c-0.348-0.116-0.641-0.217-0.88-0.304c-0.239-0.087-0.449-0.17-0.63-0.25c-0.181-0.079-0.337-0.159-0.467-0.239
		c-0.13-0.079-0.261-0.17-0.391-0.272c-0.29-0.231-0.518-0.536-0.684-0.912c-0.167-0.376-0.25-0.782-0.25-1.217
		c0-0.956,0.358-1.72,1.075-2.292c0.717-0.572,1.662-0.858,2.835-0.858c0.29,0,0.565,0.015,0.826,0.043
		c0.261,0.029,0.532,0.076,0.815,0.141c0.282,0.065,0.579,0.152,0.891,0.261c0.311,0.109,0.663,0.243,1.054,0.402l-0.282,2.39
		c-0.579-0.42-1.112-0.731-1.597-0.934c-0.485-0.203-0.952-0.304-1.401-0.304c-0.362,0-0.663,0.08-0.902,0.239
		c-0.239,0.16-0.358,0.362-0.358,0.608c0,0.232,0.09,0.424,0.272,0.576c0.181,0.152,0.481,0.286,0.902,0.402l0.739,0.196
		c1.999,0.594,2.998,1.644,2.998,3.15c0,0.999-0.373,1.792-1.119,2.379c-0.746,0.587-1.756,0.88-3.031,0.88
		c-0.608,0-1.173-0.062-1.694-0.185c-0.521-0.123-1.123-0.337-1.803-0.641V42.44z M115.933,44.373
		c-0.464,0.551-0.912,0.942-1.347,1.173c-0.434,0.231-0.942,0.348-1.521,0.348c-0.985,0-1.767-0.312-2.346-0.934
		c-0.579-0.623-0.869-1.463-0.869-2.52v-6.517h3.302v5.279c0,0.536,0.123,0.952,0.369,1.249c0.246,0.297,0.587,0.445,1.021,0.445
		c0.434,0,0.775-0.148,1.021-0.445c0.246-0.297,0.369-0.713,0.369-1.249v-5.279h3.302v9.102l-3.302,0.869V44.373z M122.037,30.492
		l3.302-0.608v15.555h-3.302V30.492z M129.402,45.568c-0.348-0.203-0.605-0.478-0.771-0.826c-0.167-0.348-0.25-0.811-0.25-1.39
		v-4.866h-1.586v-2.563h1.586v-2.954l3.302-0.391v3.346h2.368v2.563h-2.368v4.345c0,0.348,0.018,0.641,0.054,0.88
		c0.036,0.239,0.098,0.445,0.185,0.619s0.21,0.322,0.369,0.445c0.159,0.123,0.369,0.243,0.63,0.358v0.304L129.402,45.568z
		 M139.199,32.295c0,0.507-0.174,0.934-0.521,1.282c-0.348,0.348-0.775,0.521-1.282,0.521c-0.507,0-0.934-0.174-1.282-0.521
		c-0.348-0.348-0.521-0.775-0.521-1.282c0-0.507,0.174-0.934,0.521-1.282c0.348-0.348,0.775-0.521,1.282-0.521
		c0.507,0,0.934,0.174,1.282,0.521C139.026,31.361,139.199,31.788,139.199,32.295z M135.745,36.27l3.302-0.608v9.776h-3.302V36.27z
		 M141.85,35.923H145v1.412c0.521-0.579,1.032-1.003,1.532-1.271c0.5-0.268,1.024-0.402,1.575-0.402
		c0.956,0,1.716,0.315,2.281,0.945c0.565,0.63,0.847,1.466,0.847,2.509v6.322h-3.302v-5.083c0-0.521-0.123-0.934-0.369-1.238
		c-0.246-0.304-0.587-0.456-1.021-0.456s-0.775,0.152-1.021,0.456c-0.246,0.304-0.369,0.717-0.369,1.238v5.083h-3.302V35.923z
		 M154.254,46.524c0.376,0.203,0.644,0.348,0.804,0.434c0.159,0.087,0.333,0.166,0.521,0.239c0.739,0.304,1.484,0.456,2.238,0.456
		c0.84,0,1.448-0.199,1.825-0.597c0.376-0.399,0.565-1.046,0.565-1.944c-0.551,0.174-1.007,0.293-1.369,0.358
		c-0.362,0.065-0.739,0.098-1.13,0.098c-0.637,0-1.22-0.119-1.749-0.358c-0.529-0.239-0.988-0.568-1.379-0.988
		c-0.391-0.42-0.695-0.92-0.912-1.499c-0.217-0.579-0.326-1.209-0.326-1.89c0-0.739,0.119-1.426,0.358-2.064
		c0.239-0.637,0.576-1.184,1.01-1.64c0.434-0.456,0.948-0.815,1.542-1.075c0.594-0.261,1.238-0.391,1.933-0.391
		c0.434,0,0.858,0.051,1.271,0.152c0.413,0.101,0.872,0.268,1.379,0.5l2.672-0.196v8.168c0,1.796-0.478,3.197-1.434,4.204
		c-0.956,1.006-2.289,1.51-3.997,1.51c-0.652,0-1.293-0.054-1.923-0.163c-0.63-0.109-1.264-0.286-1.901-0.532V46.524z
		 M160.207,38.486c-0.29-0.145-0.543-0.246-0.76-0.304c-0.217-0.058-0.449-0.087-0.695-0.087c-0.695,0-1.242,0.239-1.64,0.717
		c-0.398,0.478-0.597,1.13-0.597,1.955c0,1.579,0.659,2.368,1.977,2.368c0.304,0,0.576-0.04,0.815-0.119
		c0.239-0.079,0.539-0.235,0.902-0.467V38.486z"/>
	<path fill-rule="evenodd" clip-rule="evenodd" fill="#FFFFFF" d="M39.852,43.032L39.852,43.032z M21.804,8.173L21.804,8.173z
		 M17.693,21.575l11.531,0.969l5.715-10.361l-1.103,11.764l10.127,5.682L32.399,28.66l-5.682,10.361l1.069-11.764L17.693,21.575z"/>
	<path fill-rule="evenodd" clip-rule="evenodd" fill="#FFFFFF" d="M14.685,19.736c-1.036,3.275,5.114,7.954,14.171,10.829
		c9.091,2.908,16.811,2.607,17.847-0.635c0.602-1.872-1.203-4.245-4.545-6.45c6.049,3.409,9.425,7.319,8.456,10.428
		c-1.437,4.479-11.464,5.08-23.195,1.337c-11.731-3.71-19.585-9.993-18.148-14.505c0.969-3.041,5.916-4.311,12.667-3.61
		C18.027,16.996,15.287,17.898,14.685,19.736z"/>
	<path fill-rule="evenodd" clip-rule="evenodd" fill="#FFFFFF" d="M25.347,41.093c3.275,1.036,7.954-5.114,10.829-14.204
		c2.908-9.057,2.607-16.811-0.635-17.814c-1.872-0.602-4.245,1.17-6.45,4.545c3.376-6.049,7.319-9.425,10.428-8.456
		c4.479,1.437,5.08,11.464,1.337,23.195c-3.71,11.731-9.993,19.585-14.505,18.148c-3.041-0.969-4.311-5.916-3.61-12.667
		C22.606,37.751,23.508,40.491,25.347,41.093z"/>
</g>
</svg>
