<?xml version="1.0" encoding="utf-8"?>
<!-- Generator: Adobe Illustrator 17.0.0, SVG Export Plug-In . SVG Version: 6.00 Build 0)  -->
<!DOCTYPE svg PUBLIC "-//W3C//DTD SVG 1.1//EN" "http://www.w3.org/Graphics/SVG/1.1/DTD/svg11.dtd">
<svg version="1.1" id="Livello_1" xmlns="http://www.w3.org/2000/svg" xmlns:xlink="http://www.w3.org/1999/xlink" x="0px" y="0px"
	 width="230px" height="60px" viewBox="0 0 230 60" enable-background="new 0 0 230 60" xml:space="preserve">
<g>
	<path fill="#2A9CD0" d="M73.803,12.911v13.868h-5.419V0.825h0.642L84.998,15.62V1.681h5.419v25.953h-0.642L73.803,12.911z
		 M111.771,18.971c0,1.26-0.214,2.412-0.642,3.458c-0.428,1.046-1.022,1.943-1.783,2.692c-0.761,0.749-1.67,1.337-2.727,1.765
		c-1.058,0.428-2.216,0.642-3.476,0.642c-1.26,0-2.419-0.214-3.476-0.642c-1.058-0.428-1.967-1.016-2.727-1.765
		c-0.761-0.749-1.355-1.645-1.782-2.692c-0.428-1.046-0.642-2.198-0.642-3.458c0-1.236,0.214-2.382,0.642-3.44
		c0.428-1.057,1.022-1.961,1.782-2.709c0.76-0.749,1.669-1.337,2.727-1.765c1.057-0.428,2.216-0.642,3.476-0.642
		c1.259,0,2.418,0.214,3.476,0.642c1.057,0.428,1.966,1.016,2.727,1.765c0.76,0.749,1.355,1.652,1.783,2.709
		C111.557,16.589,111.771,17.736,111.771,18.971z M106.566,18.971c0-1.426-0.303-2.543-0.909-3.351
		c-0.606-0.808-1.444-1.212-2.513-1.212c-1.069,0-1.907,0.41-2.513,1.23c-0.606,0.82-0.909,1.967-0.909,3.44
		c0,1.355,0.303,2.436,0.909,3.244c0.606,0.808,1.444,1.212,2.513,1.212c1.07,0,1.907-0.404,2.513-1.212
		C106.263,21.515,106.566,20.397,106.566,18.971z M112.769,11.164h5.775l3.102,6.845l3.244-6.845h4.848l-8.413,16.47h-0.57
		L112.769,11.164z M142.465,25.959c-1.212,1.046-2.602,1.569-4.171,1.569c-1.046,0-2.014-0.214-2.905-0.642
		c-0.891-0.428-1.67-1.01-2.335-1.747c-0.666-0.736-1.183-1.61-1.551-2.62c-0.369-1.01-0.553-2.109-0.553-3.298
		c0-1.236,0.208-2.394,0.624-3.476c0.416-1.081,0.98-2.014,1.693-2.799c0.713-0.784,1.556-1.402,2.531-1.854
		c0.974-0.451,2.032-0.677,3.173-0.677c0.736,0,1.432,0.089,2.086,0.267c0.653,0.178,1.396,0.47,2.228,0.873l4.349-0.392v10.731
		c0,0.499,0.006,0.939,0.018,1.319c0.012,0.38,0.03,0.731,0.053,1.052c0.023,0.321,0.053,0.624,0.089,0.909
		c0.036,0.285,0.089,0.594,0.16,0.927l-5.027,1.426L142.465,25.959z M142.215,15.014c-0.808-0.404-1.604-0.606-2.389-0.606
		c-1.117,0-2.009,0.428-2.674,1.283c-0.666,0.856-0.998,1.996-0.998,3.422c0,1.403,0.285,2.49,0.856,3.262
		c0.57,0.773,1.39,1.159,2.46,1.159c0.499,0,0.956-0.077,1.373-0.232c0.416-0.154,0.873-0.41,1.373-0.766V15.014z"/>
	<path fill="#BFBDBE" d="M158.481,14.979l-2.175,11.8h-5.348l5.241-25.953h0.357l9.59,16.577l8.984-16.577h0.499l5.241,25.953
		h-5.597l-2.282-11.551l-6.845,12.406h-0.357L158.481,14.979z M189.675,5.21c0,0.832-0.285,1.533-0.856,2.103
		c-0.57,0.57-1.272,0.856-2.103,0.856c-0.832,0-1.533-0.285-2.103-0.856c-0.57-0.57-0.856-1.271-0.856-2.103
		c0-0.832,0.285-1.533,0.856-2.103c0.57-0.57,1.271-0.856,2.103-0.856c0.832,0,1.533,0.285,2.103,0.856
		C189.39,3.677,189.675,4.379,189.675,5.21z M184.007,11.734l5.419-0.998v16.042h-5.419V11.734z M194.024,11.164h5.169v2.317
		c0.856-0.95,1.693-1.645,2.513-2.086c0.82-0.44,1.681-0.66,2.585-0.66c1.569,0,2.816,0.517,3.743,1.551
		c0.927,1.034,1.39,2.406,1.39,4.118v10.374h-5.419v-8.342c0-0.856-0.202-1.533-0.606-2.032c-0.404-0.499-0.963-0.749-1.676-0.749
		c-0.713,0-1.272,0.25-1.676,0.749c-0.404,0.499-0.606,1.176-0.606,2.032v8.342h-5.419V11.164z M224.683,26.03
		c-0.856,0.523-1.646,0.903-2.371,1.141c-0.725,0.237-1.468,0.356-2.228,0.356c-1.022,0-1.973-0.208-2.852-0.624
		c-0.88-0.416-1.646-0.998-2.299-1.747c-0.654-0.749-1.165-1.622-1.533-2.62c-0.369-0.998-0.553-2.091-0.553-3.28
		c0-1.259,0.202-2.43,0.606-3.512c0.404-1.081,0.963-2.014,1.676-2.799c0.713-0.784,1.556-1.402,2.531-1.854
		c0.974-0.451,2.032-0.677,3.173-0.677c0.57,0,1.087,0.042,1.551,0.125c0.463,0.084,1.039,0.256,1.729,0.517V2.251l5.419-0.998V26.6
		l-4.848,0.927V26.03z M224.113,14.729c-0.69-0.214-1.307-0.321-1.854-0.321c-0.618,0-1.183,0.119-1.693,0.357
		c-0.511,0.238-0.957,0.559-1.337,0.963c-0.38,0.404-0.672,0.897-0.873,1.479c-0.202,0.583-0.303,1.207-0.303,1.872
		c0,1.26,0.315,2.27,0.945,3.03c0.629,0.761,1.456,1.141,2.478,1.141c0.903,0,1.783-0.202,2.638-0.606V14.729z"/>
	<path fill="#BFBDBE" d="M85.878,52.932c-1.043,0.599-2.062,1.028-3.056,1.289c-0.995,0.261-2.1,0.391-3.317,0.391
		c-0.811,0-1.579-0.058-2.303-0.174c-0.724-0.116-1.386-0.3-1.984-0.55c-0.966-0.386-1.839-0.917-2.621-1.593
		c-0.782-0.676-1.448-1.463-1.999-2.361c-0.55-0.898-0.98-1.873-1.289-2.926c-0.309-1.052-0.463-2.148-0.463-3.288
		c0-1.564,0.265-3.007,0.797-4.33c0.531-1.322,1.26-2.472,2.187-3.447c0.927-0.975,2.028-1.738,3.302-2.288
		c1.274-0.55,2.655-0.826,4.142-0.826c0.965,0,1.931,0.116,2.897,0.348c0.328,0.097,0.627,0.184,0.898,0.261
		c0.27,0.077,0.54,0.174,0.811,0.29c0.27,0.116,0.56,0.246,0.869,0.391c0.309,0.145,0.666,0.333,1.072,0.565l-0.406,5.214
		c-0.213-0.212-0.396-0.391-0.55-0.536c-0.155-0.145-0.309-0.285-0.463-0.42c-0.657-0.56-1.41-1.004-2.259-1.332
		c-0.85-0.328-1.699-0.492-2.549-0.492c-0.869,0-1.656,0.155-2.361,0.463c-0.705,0.309-1.308,0.744-1.81,1.303
		c-0.502,0.56-0.893,1.231-1.173,2.013c-0.28,0.782-0.42,1.647-0.42,2.592c0,0.985,0.145,1.878,0.434,2.679
		c0.29,0.802,0.7,1.487,1.231,2.057c0.531,0.57,1.173,1.004,1.926,1.303c0.753,0.3,1.603,0.449,2.549,0.449
		c0.734,0,1.453-0.077,2.158-0.232c0.705-0.154,1.356-0.367,1.955-0.637c0.425-0.193,0.782-0.386,1.072-0.579
		c0.29-0.193,0.666-0.502,1.13-0.927L85.878,52.932z M103.17,47.574c0,1.024-0.174,1.96-0.521,2.81
		c-0.348,0.85-0.831,1.579-1.448,2.187c-0.618,0.608-1.357,1.086-2.216,1.434c-0.859,0.348-1.801,0.521-2.824,0.521
		c-1.024,0-1.965-0.174-2.824-0.521c-0.859-0.348-1.598-0.826-2.216-1.434c-0.618-0.608-1.101-1.337-1.448-2.187
		c-0.348-0.85-0.521-1.786-0.521-2.81c0-1.004,0.174-1.936,0.521-2.795c0.348-0.859,0.83-1.593,1.448-2.201
		c0.618-0.608,1.356-1.086,2.216-1.434c0.859-0.348,1.8-0.521,2.824-0.521c1.023,0,1.965,0.174,2.824,0.521
		c0.859,0.348,1.598,0.826,2.216,1.434c0.618,0.608,1.101,1.342,1.448,2.201C102.996,45.638,103.17,46.57,103.17,47.574z
		 M98.941,47.574c0-1.159-0.246-2.066-0.739-2.723c-0.492-0.656-1.173-0.985-2.042-0.985c-0.869,0-1.55,0.333-2.042,0.999
		c-0.492,0.666-0.739,1.598-0.739,2.795c0,1.101,0.246,1.98,0.739,2.636c0.492,0.657,1.173,0.985,2.042,0.985
		c0.869,0,1.55-0.328,2.042-0.985C98.695,49.64,98.941,48.732,98.941,47.574z M106.095,41.23h4.2v1.883
		c0.695-0.772,1.376-1.337,2.042-1.694c0.666-0.357,1.366-0.536,2.1-0.536c1.274,0,2.288,0.42,3.041,1.26
		c0.753,0.84,1.13,1.955,1.13,3.346v8.429h-4.403v-6.778c0-0.695-0.164-1.246-0.492-1.651c-0.329-0.406-0.782-0.608-1.361-0.608
		c-0.579,0-1.033,0.203-1.361,0.608c-0.329,0.406-0.492,0.956-0.492,1.651v6.778h-4.403V41.23z M121.765,49.92
		c0.251,0.213,0.473,0.391,0.666,0.536c0.193,0.145,0.377,0.275,0.55,0.391c0.174,0.116,0.352,0.217,0.536,0.304
		c0.183,0.087,0.391,0.179,0.623,0.275c0.714,0.29,1.419,0.434,2.115,0.434c0.56,0,0.994-0.116,1.303-0.348
		c0.309-0.232,0.463-0.56,0.463-0.985c0-0.386-0.135-0.656-0.406-0.811c-0.077-0.038-0.15-0.072-0.217-0.101
		c-0.068-0.029-0.159-0.067-0.275-0.116c-0.116-0.048-0.275-0.106-0.478-0.174c-0.203-0.067-0.459-0.149-0.768-0.246
		c-0.463-0.154-0.854-0.29-1.173-0.406c-0.319-0.116-0.599-0.227-0.84-0.333c-0.242-0.106-0.449-0.212-0.623-0.319
		c-0.174-0.106-0.348-0.227-0.521-0.362c-0.387-0.309-0.691-0.714-0.912-1.217c-0.222-0.502-0.333-1.043-0.333-1.622
		c0-1.274,0.478-2.293,1.434-3.056c0.956-0.763,2.216-1.144,3.78-1.144c0.386,0,0.753,0.019,1.101,0.058
		c0.348,0.039,0.71,0.101,1.086,0.188c0.377,0.087,0.772,0.203,1.188,0.348c0.415,0.145,0.883,0.324,1.405,0.536l-0.377,3.186
		c-0.773-0.56-1.482-0.975-2.129-1.246c-0.647-0.27-1.27-0.406-1.868-0.406c-0.483,0-0.883,0.106-1.202,0.319
		c-0.319,0.213-0.478,0.483-0.478,0.811c0,0.309,0.12,0.565,0.362,0.768c0.241,0.203,0.642,0.382,1.202,0.536l0.985,0.261
		c2.665,0.792,3.997,2.192,3.997,4.2c0,1.332-0.497,2.39-1.492,3.172c-0.995,0.782-2.342,1.173-4.041,1.173
		c-0.811,0-1.564-0.082-2.259-0.246c-0.695-0.164-1.497-0.449-2.404-0.854V49.92z M142.91,52.498
		c-0.618,0.734-1.217,1.255-1.796,1.564c-0.579,0.309-1.255,0.463-2.028,0.463c-1.313,0-2.356-0.415-3.128-1.246
		c-0.773-0.83-1.159-1.95-1.159-3.36v-8.69h4.403v7.039c0,0.715,0.164,1.27,0.492,1.666c0.328,0.396,0.782,0.594,1.361,0.594
		c0.579,0,1.033-0.198,1.361-0.594c0.328-0.396,0.492-0.951,0.492-1.666V41.23h4.403v12.137l-4.403,1.159V52.498z M151.05,33.989
		l4.403-0.811v20.739h-4.403V33.989z M160.869,54.091c-0.463-0.27-0.807-0.637-1.028-1.101c-0.222-0.463-0.333-1.081-0.333-1.854
		v-6.488h-2.115V41.23h2.115v-3.939l4.403-0.521v4.461h3.157v3.418h-3.157v5.793c0,0.463,0.024,0.854,0.072,1.173
		c0.048,0.319,0.13,0.594,0.246,0.826s0.28,0.43,0.492,0.594c0.212,0.164,0.492,0.324,0.84,0.478v0.406L160.869,54.091z
		 M173.933,36.393c0,0.676-0.232,1.246-0.695,1.709c-0.463,0.463-1.033,0.695-1.709,0.695c-0.676,0-1.246-0.232-1.709-0.695
		c-0.463-0.463-0.695-1.033-0.695-1.709c0-0.676,0.232-1.246,0.695-1.709c0.463-0.463,1.033-0.695,1.709-0.695
		c0.676,0,1.246,0.232,1.709,0.695C173.701,35.147,173.933,35.717,173.933,36.393z M169.327,41.694l4.403-0.811v13.035h-4.403
		V41.694z M177.466,41.23h4.2v1.883c0.695-0.772,1.376-1.337,2.042-1.694c0.666-0.357,1.366-0.536,2.1-0.536
		c1.274,0,2.288,0.42,3.041,1.26c0.753,0.84,1.13,1.955,1.13,3.346v8.429h-4.403v-6.778c0-0.695-0.164-1.246-0.492-1.651
		c-0.329-0.406-0.782-0.608-1.361-0.608c-0.579,0-1.033,0.203-1.361,0.608c-0.329,0.406-0.492,0.956-0.492,1.651v6.778h-4.403V41.23
		z M194.005,55.366c0.502,0.27,0.859,0.463,1.072,0.579c0.212,0.116,0.444,0.222,0.695,0.319c0.985,0.406,1.979,0.608,2.983,0.608
		c1.12,0,1.931-0.266,2.433-0.797c0.502-0.531,0.753-1.395,0.753-2.592c-0.734,0.232-1.342,0.391-1.825,0.478
		c-0.483,0.087-0.985,0.13-1.506,0.13c-0.85,0-1.627-0.159-2.332-0.478c-0.705-0.319-1.318-0.758-1.839-1.318
		c-0.521-0.56-0.927-1.226-1.217-1.999c-0.29-0.772-0.434-1.612-0.434-2.52c0-0.985,0.159-1.902,0.478-2.752
		c0.319-0.85,0.768-1.579,1.347-2.187c0.579-0.608,1.265-1.086,2.057-1.434c0.792-0.348,1.651-0.521,2.578-0.521
		c0.579,0,1.144,0.068,1.695,0.203c0.55,0.135,1.163,0.358,1.839,0.666l3.563-0.261v10.891c0,2.394-0.637,4.262-1.912,5.605
		c-1.274,1.342-3.051,2.013-5.33,2.013c-0.869,0-1.723-0.072-2.563-0.217c-0.84-0.145-1.685-0.382-2.534-0.71V55.366z
		 M201.942,44.648c-0.387-0.193-0.724-0.328-1.014-0.406c-0.29-0.077-0.599-0.116-0.927-0.116c-0.927,0-1.656,0.319-2.187,0.956
		c-0.531,0.637-0.797,1.506-0.797,2.607c0,2.105,0.878,3.157,2.636,3.157c0.406,0,0.768-0.053,1.086-0.159
		c0.319-0.106,0.719-0.314,1.202-0.623V44.648z"/>
	<path fill-rule="evenodd" clip-rule="evenodd" fill="#E6E4E5" d="M41.469,50.709L41.469,50.709z M17.405,4.23L17.405,4.23z
		 M11.924,22.1l15.374,1.292l7.62-13.814l-1.471,15.686l13.502,7.576l-15.419-1.292l-7.576,13.814l1.426-15.686L11.924,22.1z"/>
	<path fill-rule="evenodd" clip-rule="evenodd" fill="#2A9CD0" d="M7.913,19.649c-1.381,4.367,6.818,10.606,18.894,14.438
		c12.121,3.877,22.415,3.476,23.796-0.847c0.802-2.496-1.604-5.659-6.061-8.601c8.066,4.545,12.567,9.759,11.274,13.904
		c-1.916,5.971-15.285,6.773-30.926,1.783C9.25,35.379-1.222,27.001,0.694,20.986c1.292-4.055,7.888-5.749,16.889-4.813
		C12.37,15.995,8.715,17.198,7.913,19.649z"/>
	<path fill-rule="evenodd" clip-rule="evenodd" fill="#807F85" d="M22.129,48.124c4.367,1.381,10.606-6.818,14.438-18.939
		C40.444,17.109,40.043,6.77,35.72,5.433c-2.495-0.802-5.659,1.56-8.601,6.061c4.501-8.066,9.759-12.567,13.904-11.274
		c5.971,1.916,6.773,15.285,1.783,30.926c-4.946,15.641-13.324,26.114-19.34,24.197c-4.055-1.292-5.749-7.888-4.813-16.889
		C18.475,43.668,19.678,47.322,22.129,48.124z"/>
</g>
</svg>
